<svg xmlns="http://www.w3.org/2000/svg" viewBox="0 0 568.9 568.9"><defs><style>.cls-1{fill:#D65059;}</style></defs><title>Asset 2</title><g id="Layer_2" data-name="Layer 2"><g id="Layer_1-2" data-name="Layer 1"><path class="cls-1" d="M216.56,399.21q-4.69-2.76-10.66-.59t-12.22,8.49a82.14,82.14,0,0,0-12,16.07,72.15,72.15,0,0,0-8,18.6q-2.19,8.64-.88,14.79t5.72,8.76q4.69,2.76,10.66.59t12.25-8.54a82,82,0,0,0,12-16,71.83,71.83,0,0,0,8.08-18.65q2.16-8.59.85-14.74T216.56,399.21Z"/><polygon class="cls-1" points="174.7 140.13 192.19 129.76 169.81 111.32 174.7 140.13"/><path class="cls-1" d="M261.86,98.18l2.93-.25q5.54-.47,8.21-3.15a12.28,12.28,0,0,0,3.37-6.84,37.09,37.09,0,0,0,.27-9.16q-.72-8.58-3.45-13.11t-8.49-4.05q-3.69.32-4.62,2.25t-.46,7.59Z"/><polygon class="cls-1" points="330.62 109.08 349.55 116.5 350.32 87.51 330.62 109.08"/><path class="cls-1" d="M284.45,0C127.35,0,0,127.35,0,284.45S127.35,568.9,284.45,568.9,568.9,441.54,568.9,284.45,441.54,0,284.45,0ZM407.09,130.14a16.59,16.59,0,0,0,6.35.32,12.74,12.74,0,0,0,5.63-2.09,11.32,11.32,0,0,0,4-4.45,11.09,11.09,0,0,1-12.17-8.7,9,9,0,0,1,2.34-7,8.72,8.72,0,0,1,6.5-3.5,10.65,10.65,0,0,1,7.36,2.69,11.84,11.84,0,0,1,3.28,4,8.38,8.38,0,0,1,.86,4.56,12.38,12.38,0,0,1-1.16,4.53,23,23,0,0,1-3.26,5.22,20.19,20.19,0,0,1-8.7,6.2,19,19,0,0,1-11.55.37ZM86.51,178.7A14.64,14.64,0,0,0,83,182.3l-1.79-1.24c1.27-1.69,2.91-3.93,4.94-6.73s4.17-5.79,6.41-9q3.12-4.47,6-8.83t4.74-7.19l1.79,1.25a18.65,18.65,0,0,0-2.53,5.07,4.1,4.1,0,0,0,.68,3.6,20.23,20.23,0,0,0,4.5,3.93l46.17,32.12a16.6,16.6,0,0,0,3.88,2.16,2.82,2.82,0,0,0,2.54-.22,9.7,9.7,0,0,0,2.4-2.58l2-3c1.45-2.08,2-5.07,1.6-9a38.5,38.5,0,0,0-3.58-12.32,38.93,38.93,0,0,0-8-11.44l1.43-2.06c2,1.68,4.7,3.67,8,6,1.55,1.08,3.83,2.61,6.82,4.61q2.24,1.49,4.6,2.94c.06-.24.11-.48.16-.73q.69-3.65-.5-10.79L164.38,93q2.37-1.16,5-2.74c1.78-1.05,3.38-2.09,4.81-3.1l57.38,45.05a14.86,14.86,0,0,0,5.51,2.88,5.67,5.67,0,0,0,3.58-.16l.19.33a4,4,0,0,0,1.14-2.2,23.7,23.7,0,0,0,.05-5.91L237.57,73.3a23.11,23.11,0,0,0-1-5.87A3.77,3.77,0,0,0,234.09,65a14.82,14.82,0,0,0-5-.41l-.18-2.17c2.1-.1,4.88-.26,8.32-.48s6.91-.46,10.38-.76c3.63-.3,7.1-.62,10.42-1s5.68-.58,7.05-.7q16.51-1.38,25,2.56t9.29,13.61a19.73,19.73,0,0,1-1,8,18,18,0,0,1-5,7.36,29.12,29.12,0,0,1-10.29,5.78,52.47,52.47,0,0,1-8.43,2.13c7.3-.18,12.92.67,16.81,2.58a14.67,14.67,0,0,1,8,9.62l3.23,11.1a16.13,16.13,0,0,0,2.42,5.38,3.54,3.54,0,0,0,1.64,1.11,13.15,13.15,0,0,0,1.23-.56q3.3-1.69,8.2-7L361.42,72q2.35,1.15,5.25,2.29t5.41,1.88l-.25,72.95a14.76,14.76,0,0,0,1.12,6.12,5.63,5.63,0,0,0,2.33,2.72l-.8,2q-3.57-1.64-8.42-3.6t-9.93-3.94q-5.17-2-9.76-3.77T339,146.06l.79-2c3.51,1.22,5.92,1.48,7.25.79s2-3,2-7l.51-19-20.45-8-3.54,3.88q-6.78,7.42-8.43,11.8t.3,6.85a15.53,15.53,0,0,0,5.94,4.26l-.79,2c-2.45-1.11-4.67-2.08-6.65-2.89s-4.16-1.69-6.53-2.62c-.73-.29-1.51-.58-2.3-.88-.34.17-.68.32-1,.46a29.74,29.74,0,0,1-8.86,2c-4.7.4-8.58-.14-11.61-1.59s-5.07-4.37-6.09-8.74l-2.54-10.72a64.14,64.14,0,0,0-2.3-7.8,15.12,15.12,0,0,0-3.06-5.26,5.44,5.44,0,0,0-4.62-1.64l-4.89.41,2.09,25a21.52,21.52,0,0,0,1.09,5.82,3.81,3.81,0,0,0,2.44,2.42,17.45,17.45,0,0,0,5,.46l.18,2.17q-3.17,0-8.11.41t-10.05.78c-3.91.33-7.59.66-11,1q-3.33.31-5.82.63c-1.26.7-2.59,1.45-4,2.27q-4.53,2.63-9.22,5.4t-9,5.38c-2.8,1.7-5,3.12-6.61,4.24l-1.12-1.87q4.68-3,5.08-5.23t-4.31-5.87L194,131.23l-18.89,11.2.88,5.18q1.69,9.9,4.13,13.91c1.62,2.67,3.49,4,5.59,4a15.63,15.63,0,0,0,7-2.07l1.11,1.88c-2.39,1.24-4.51,2.4-6.37,3.46s-3.89,2.24-6.08,3.54l-1.24.74.49.28q-3.36,4.44-7.39,10.14t-7.14,10.17l-6,8.63q-3.76,5.42-7.92,11.48t-7.59,11.39l-1.79-1.25a17.21,17.21,0,0,0,2.15-4.61A3.66,3.66,0,0,0,144,216a23.33,23.33,0,0,0-4.52-3.81L95.12,181.3a24,24,0,0,0-5.19-3A3.8,3.8,0,0,0,86.51,178.7ZM370.09,295l-33.88,40.89H294.94L330.24,295Zm-237.46-6.23a10.4,10.4,0,1,1-10.39-10.4A10.4,10.4,0,0,1,132.63,288.72ZM113,401.89a33.53,33.53,0,0,0,3.27,6.93l-1.89,1.09q-1.81-3.35-5-9t-6.72-11.79q-3.41-5.83-6.51-11t-5.07-8.28l1.89-1.1a33.8,33.8,0,0,0,4.4,6.27,4.86,4.86,0,0,0,4.23,1.64,18.1,18.1,0,0,0,6.21-2.54l53.9-31.35,0-.09a15,15,0,0,0-6.1-5.6q-4.11-2.21-10.91-2.29t-17.06,2.86l-1.26-2.17A27.14,27.14,0,0,0,129.5,334c1.21-.66,2.48-1.37,3.8-2.14q2.73-1.59,7.83-4.74t10.44-6.77q2.53,4.57,5.62,10.1t6.26,11c2.12,3.65,4,6.94,5.75,9.9L175,361.2q3.18,5.46,6.45,10.87t5.94,9.79q-5.78,2.85-11,5.73t-8,4.46c-1.32.77-2.56,1.53-3.71,2.29s-2.13,1.4-2.91,1.94l-1.26-2.17q7.59-7.32,10.9-13.34t3.43-10.69a15,15,0,0,0-1.85-8.07l-.06-.09L119,393.26a17.76,17.76,0,0,0-5.28,4.15A4.83,4.83,0,0,0,113,401.89Zm120.28,50.72a42.34,42.34,0,0,1-15.36,15.74,36.84,36.84,0,0,1-19.79,4.91,43.69,43.69,0,0,1-21-6.47,47.19,47.19,0,0,1-16.21-15,34,34,0,0,1-5.53-19q.08-10.2,6.39-20.91a41.82,41.82,0,0,1,15.4-15.71,37.34,37.34,0,0,1,19.79-4.91,43.31,43.31,0,0,1,21,6.44,47.1,47.1,0,0,1,16.21,15,34,34,0,0,1,5.56,18.9Q239.65,441.81,233.29,452.61Zm84.47-32.32a9.69,9.69,0,0,0-5,2.17,8.85,8.85,0,0,0-2.35,5,67,67,0,0,0-.76,9.63l-.59,26.27a84.23,84.23,0,0,1-1.21,12.72,28.39,28.39,0,0,1-3.78,10.28,19.49,19.49,0,0,1-8.61,7.22q-5.68,2.59-15.05,2.38a54.57,54.57,0,0,1-10.54-1.33,25.56,25.56,0,0,1-9.83-4.36,18.34,18.34,0,0,1-5.51-6.78,28.15,28.15,0,0,1-2.41-9.21,96,96,0,0,1-.39-11.89l.77-34.22a22.83,22.83,0,0,0-.41-5.95,3.77,3.77,0,0,0-2.12-2.66,14.35,14.35,0,0,0-5-.93l.05-2.18q3.15.18,8.33.4t10.84.36c3.78.08,7.41.13,10.9.13s6.36,0,8.61,0l-.05,2.18a18.78,18.78,0,0,0-5.63.69,4.1,4.1,0,0,0-2.62,2.56,19.89,19.89,0,0,0-.78,5.92l-1,44.46a33.35,33.35,0,0,0,1.27,11.31,10.71,10.71,0,0,0,4.45,5.94,15,15,0,0,0,7.48,1.91q7.31.17,11.52-3.28a19.38,19.38,0,0,0,6.11-9.79,56.25,56.25,0,0,0,2.08-14.72l.57-25.28a78.44,78.44,0,0,0-.35-11.19,8.28,8.28,0,0,0-2.76-5.67q-2.25-1.8-7.47-2.57l.05-2.18q2.18.15,5.66.35c2.33.12,4.51.21,6.54.25,1.67,0,3.32,0,5,0s3-.07,4.09-.12Zm-3.62-56.22a173,173,0,0,0-21.64-14.68c-2.44-1.41-4.91-2.77-7.33-4-1-.53-2.1-1.09-3.18-1.61a171.46,171.46,0,0,0-18.67-7.93,158.28,158.28,0,0,0-19.82-5.63,128.52,128.52,0,0,0-16.16-2.35,89.6,89.6,0,0,0-28.53,1.91v-7.92a99,99,0,0,1,29.13-1.64c3,.25,6,.6,9.1,1.06,2.15.32,4.29.69,6.46,1.13V204.83h40.17V336.07c.56.25,1.13.53,1.68.8,1.16.58,2.29,1.13,3.37,1.71,2,1.06,4.15,2.21,6.25,3.39.46.25.9.5,1.36.78a188.72,188.72,0,0,1,22.7,15.4Zm162.5,11.28q-2.83,4-6,8.58-3,4.4-6,8.78T459.94,400l-1.79-1.24a17.37,17.37,0,0,0,2.13-4.62,3.66,3.66,0,0,0-.91-3.28,23.51,23.51,0,0,0-4.53-3.79l-21.52-14.88-13.94,20.18,21.52,14.87a21.26,21.26,0,0,0,5.18,2.85,3.79,3.79,0,0,0,3.42-.35,17.07,17.07,0,0,0,3.51-3.54l1.79,1.24c-1.32,1.66-2.93,3.83-4.84,6.53s-3.83,5.45-5.78,8.26q-3.35,4.84-6.24,9.14t-4.52,7l-1.79-1.24a17.23,17.23,0,0,0,2.13-4.62,3.66,3.66,0,0,0-.91-3.28,23.51,23.51,0,0,0-4.53-3.79L383.84,394.7a23.52,23.52,0,0,0-5.2-2.93,3.83,3.83,0,0,0-3.42.35,9.61,9.61,0,0,0-1.56,1.32c.81,1.85,1.71,3.86,2.74,6.09q2.61,5.7,7.1,15l-2.26,1.09a62.85,62.85,0,0,0-5.32-7.79,24.5,24.5,0,0,0-5.79-5.26,18.22,18.22,0,0,0-7.51-2.56,21.31,21.31,0,0,0-5.41-.06,16.33,16.33,0,0,0-5.15,1.51,15.27,15.27,0,0,0-7.75,7.53,22.69,22.69,0,0,0-1.77,10.77,48.82,48.82,0,0,0,2.39,12.15,93.64,93.64,0,0,0,4.66,11.73,95.31,95.31,0,0,0,6.24,11,49.44,49.44,0,0,0,8,9.46,22.75,22.75,0,0,0,9.52,5.34,15.29,15.29,0,0,0,10.73-1.34,15.5,15.5,0,0,0,4.36-3.13,26.09,26.09,0,0,0,3.36-4.21,16.72,16.72,0,0,0,2.71-11.34,64.05,64.05,0,0,0-3.92-14.32l2.26-1.09q4.64,9.63,7.58,15.53t5.09,9.83l-2.26,1.08c-1.62-2.68-2.91-4.24-3.88-4.66s-1.95.17-2.95,1.78a57.39,57.39,0,0,1-5.56,8.17,27.43,27.43,0,0,1-9.55,6.95,47.29,47.29,0,0,1-21.48,5.12A34,34,0,0,1,341,471.86q-8.44-5.75-13.82-16.94-5.29-11-4.49-21.55a37.32,37.32,0,0,1,6.93-19.17,43.36,43.36,0,0,1,17-13.87,28.4,28.4,0,0,1,11.58-3.21,40.17,40.17,0,0,1,9.56.91c1.79.35,2.84,0,3.17-1.1a4.4,4.4,0,0,0,.06-1.67l-1.11-.76c.23-.31.49-.65.74-1-.2-.77-.48-1.63-.84-2.61l2.26-1.08.47,1.11c.71-1,1.46-2,2.29-3.16q3-4.18,6.38-9,2.91-4.22,5.65-8.35c1.82-2.76,3.29-5,4.43-6.81l1.8,1.24a14.67,14.67,0,0,0-2.15,4.55,3.79,3.79,0,0,0,.88,3.32,23.73,23.73,0,0,0,4.58,3.83l21.16,14.62,13.94-20.18-21.16-14.62a23.52,23.52,0,0,0-5.2-2.93,3.83,3.83,0,0,0-3.42.35,14.79,14.79,0,0,0-3.49,3.62l-1.79-1.24q2-2.72,5.1-7t6.13-8.68q3.17-4.57,5.86-8.67t4.28-6.58l1.8,1.24a14.67,14.67,0,0,0-2.15,4.55,3.79,3.79,0,0,0,.88,3.32,23.73,23.73,0,0,0,4.58,3.83l44.48,30.73a21.26,21.26,0,0,0,5.18,2.85,3.79,3.79,0,0,0,3.42-.35,17.07,17.07,0,0,0,3.51-3.54l1.79,1.24C480.09,370.58,478.53,372.69,476.64,375.35ZM442.5,288.72a10.4,10.4,0,1,1,10.4,10.4A10.4,10.4,0,0,1,442.5,288.72Zm38.24-109q-2.61,1.6-6.76,4.41t-10.87,7.47l-1.43-2.07a37.35,37.35,0,0,0,8-8.92A25.62,25.62,0,0,0,473.74,170a14,14,0,0,0-2.51-10.13,12,12,0,0,0-6.68-5.06,9.21,9.21,0,0,0-8,1.68,12,12,0,0,0-4.57,5.56,27,27,0,0,0-1.47,8.5q-.22,5.25-.25,13.63a111.42,111.42,0,0,1-.5,11.15,28.23,28.23,0,0,1-2.65,9.58,20.55,20.55,0,0,1-7.06,7.81,18,18,0,0,1-12.27,3.52,24.37,24.37,0,0,1-12-4.85,44.8,44.8,0,0,1-10.31-10.77,43,43,0,0,1-5.65-10.47,54.56,54.56,0,0,1-2-7.69,7.89,7.89,0,0,0-.85-3.91q-1-1.44-5.31.75l-1.43-2.06q2.46-1.42,5.58-3.53c2.08-1.39,4.77-3.22,8.08-5.46s7.5-5.12,12.58-8.64l1.43,2.06a61.19,61.19,0,0,0-10.35,10.15,24.57,24.57,0,0,0-5.29,11.21c-.65,3.86.35,7.69,3,11.52q3.4,4.92,7.76,6.23a9.47,9.47,0,0,0,8.46-1.56,15.41,15.41,0,0,0,6.74-10.09,75.43,75.43,0,0,0,1.06-14.65q0-6.21.28-11.86a29.41,29.41,0,0,1,2.39-10.34,19.37,19.37,0,0,1,7-8.09q5.91-4.09,11.81-3.53a22.66,22.66,0,0,1,11.22,4.43,39.38,39.38,0,0,1,9.29,9.61,33.53,33.53,0,0,1,5.1,9.86,45.28,45.28,0,0,1,1.37,7.14c.08,1,.16,1.8.27,2.4a3.7,3.7,0,0,0,.58,1.51q1,1.44,5.31-.75l1.43,2.06Z"/></g></g></svg>